<svg width="383" height="100" viewBox="0 0 383 100" fill="none" xmlns="http://www.w3.org/2000/svg">
<rect width="263" height="100" fill="#808E88"/>
<path d="M93.602 53.508C93.602 52.764 93.41 52.122 93.026 51.582C92.642 51.042 92.102 50.652 91.406 50.412C92.03 50.208 92.516 49.848 92.864 49.332C93.224 48.804 93.404 48.204 93.404 47.532C93.404 47.004 93.308 46.536 93.116 46.128C92.936 45.708 92.678 45.354 92.342 45.066C92.018 44.778 91.628 44.562 91.172 44.418C90.716 44.262 90.224 44.184 89.696 44.184H84.98V57H89.84C90.404 57 90.914 56.928 91.37 56.784C91.838 56.628 92.234 56.406 92.558 56.118C92.894 55.818 93.152 55.452 93.332 55.02C93.512 54.588 93.602 54.084 93.602 53.508ZM92.432 47.532C92.432 47.976 92.354 48.354 92.198 48.666C92.054 48.978 91.85 49.236 91.586 49.44C91.334 49.632 91.034 49.776 90.686 49.872C90.338 49.968 89.972 50.016 89.588 50.016H85.952V45.048H89.588C89.972 45.048 90.338 45.096 90.686 45.192C91.034 45.288 91.334 45.438 91.586 45.642C91.85 45.834 92.054 46.086 92.198 46.398C92.354 46.71 92.432 47.088 92.432 47.532ZM92.63 53.508C92.63 54.336 92.366 54.984 91.838 55.452C91.31 55.908 90.608 56.136 89.732 56.136H85.952V50.88H89.732C90.608 50.88 91.31 51.114 91.838 51.582C92.366 52.038 92.63 52.68 92.63 53.508ZM106.336 50.592C106.336 49.872 106.33 49.254 106.318 48.738C106.306 48.21 106.258 47.748 106.174 47.352C106.102 46.956 105.982 46.602 105.814 46.29C105.658 45.978 105.436 45.678 105.148 45.39C104.728 44.97 104.242 44.646 103.69 44.418C103.138 44.19 102.556 44.076 101.944 44.076C101.332 44.076 100.75 44.19 100.198 44.418C99.6462 44.646 99.1602 44.97 98.7402 45.39C98.4522 45.678 98.2242 45.978 98.0562 46.29C97.9002 46.602 97.7802 46.956 97.6962 47.352C97.6242 47.748 97.5822 48.21 97.5702 48.738C97.5582 49.254 97.5522 49.872 97.5522 50.592C97.5522 51.312 97.5582 51.936 97.5702 52.464C97.5822 52.992 97.6242 53.454 97.6962 53.85C97.7802 54.246 97.9002 54.6 98.0562 54.912C98.2242 55.212 98.4522 55.506 98.7402 55.794C99.1602 56.214 99.6462 56.538 100.198 56.766C100.75 56.994 101.332 57.108 101.944 57.108C102.556 57.108 103.138 56.994 103.69 56.766C104.242 56.538 104.728 56.214 105.148 55.794C105.436 55.506 105.658 55.212 105.814 54.912C105.982 54.6 106.102 54.246 106.174 53.85C106.258 53.454 106.306 52.992 106.318 52.464C106.33 51.936 106.336 51.312 106.336 50.592ZM105.364 50.592C105.364 51.276 105.352 51.864 105.328 52.356C105.316 52.836 105.274 53.256 105.202 53.616C105.142 53.964 105.046 54.27 104.914 54.534C104.782 54.786 104.602 55.026 104.374 55.254C104.05 55.578 103.678 55.824 103.258 55.992C102.838 56.16 102.4 56.244 101.944 56.244C101.488 56.244 101.05 56.16 100.63 55.992C100.21 55.824 99.8382 55.578 99.5142 55.254C99.2862 55.026 99.1062 54.786 98.9742 54.534C98.8422 54.27 98.7402 53.964 98.6682 53.616C98.6082 53.256 98.5662 52.836 98.5422 52.356C98.5302 51.864 98.5242 51.276 98.5242 50.592C98.5242 49.908 98.5302 49.326 98.5422 48.846C98.5662 48.354 98.6082 47.934 98.6682 47.586C98.7402 47.226 98.8422 46.92 98.9742 46.668C99.1062 46.404 99.2862 46.158 99.5142 45.93C99.8382 45.606 100.21 45.36 100.63 45.192C101.05 45.024 101.488 44.94 101.944 44.94C102.4 44.94 102.838 45.024 103.258 45.192C103.678 45.36 104.05 45.606 104.374 45.93C104.602 46.158 104.782 46.404 104.914 46.668C105.046 46.92 105.142 47.226 105.202 47.586C105.274 47.934 105.316 48.354 105.328 48.846C105.352 49.326 105.364 49.908 105.364 50.592ZM119.078 50.592C119.078 49.872 119.072 49.254 119.06 48.738C119.048 48.21 119 47.748 118.916 47.352C118.844 46.956 118.724 46.602 118.556 46.29C118.4 45.978 118.178 45.678 117.89 45.39C117.47 44.97 116.984 44.646 116.432 44.418C115.88 44.19 115.298 44.076 114.686 44.076C114.074 44.076 113.492 44.19 112.94 44.418C112.388 44.646 111.902 44.97 111.482 45.39C111.194 45.678 110.966 45.978 110.798 46.29C110.642 46.602 110.522 46.956 110.438 47.352C110.366 47.748 110.324 48.21 110.312 48.738C110.3 49.254 110.294 49.872 110.294 50.592C110.294 51.312 110.3 51.936 110.312 52.464C110.324 52.992 110.366 53.454 110.438 53.85C110.522 54.246 110.642 54.6 110.798 54.912C110.966 55.212 111.194 55.506 111.482 55.794C111.902 56.214 112.388 56.538 112.94 56.766C113.492 56.994 114.074 57.108 114.686 57.108C115.298 57.108 115.88 56.994 116.432 56.766C116.984 56.538 117.47 56.214 117.89 55.794C118.178 55.506 118.4 55.212 118.556 54.912C118.724 54.6 118.844 54.246 118.916 53.85C119 53.454 119.048 52.992 119.06 52.464C119.072 51.936 119.078 51.312 119.078 50.592ZM118.106 50.592C118.106 51.276 118.094 51.864 118.07 52.356C118.058 52.836 118.016 53.256 117.944 53.616C117.884 53.964 117.788 54.27 117.656 54.534C117.524 54.786 117.344 55.026 117.116 55.254C116.792 55.578 116.42 55.824 116 55.992C115.58 56.16 115.142 56.244 114.686 56.244C114.23 56.244 113.792 56.16 113.372 55.992C112.952 55.824 112.58 55.578 112.256 55.254C112.028 55.026 111.848 54.786 111.716 54.534C111.584 54.27 111.482 53.964 111.41 53.616C111.35 53.256 111.308 52.836 111.284 52.356C111.272 51.864 111.266 51.276 111.266 50.592C111.266 49.908 111.272 49.326 111.284 48.846C111.308 48.354 111.35 47.934 111.41 47.586C111.482 47.226 111.584 46.92 111.716 46.668C111.848 46.404 112.028 46.158 112.256 45.93C112.58 45.606 112.952 45.36 113.372 45.192C113.792 45.024 114.23 44.94 114.686 44.94C115.142 44.94 115.58 45.024 116 45.192C116.42 45.36 116.792 45.606 117.116 45.93C117.344 46.158 117.524 46.404 117.656 46.668C117.788 46.92 117.884 47.226 117.944 47.586C118.016 47.934 118.058 48.354 118.07 48.846C118.094 49.326 118.106 49.908 118.106 50.592ZM132.847 57L128.221 49.08L132.181 44.184H131.011L124.513 52.194V44.184H123.541V57H124.513V53.526L127.573 49.818L131.695 57H132.847ZM151.072 57V44.184H150.1V55.29L142.702 44.184H141.73V57H142.702V45.858L150.1 57H151.072ZM164.317 50.592C164.317 49.872 164.311 49.254 164.299 48.738C164.287 48.21 164.239 47.748 164.155 47.352C164.083 46.956 163.963 46.602 163.795 46.29C163.639 45.978 163.417 45.678 163.129 45.39C162.709 44.97 162.223 44.646 161.671 44.418C161.119 44.19 160.537 44.076 159.925 44.076C159.313 44.076 158.731 44.19 158.179 44.418C157.627 44.646 157.141 44.97 156.721 45.39C156.433 45.678 156.205 45.978 156.037 46.29C155.881 46.602 155.761 46.956 155.677 47.352C155.605 47.748 155.563 48.21 155.551 48.738C155.539 49.254 155.533 49.872 155.533 50.592C155.533 51.312 155.539 51.936 155.551 52.464C155.563 52.992 155.605 53.454 155.677 53.85C155.761 54.246 155.881 54.6 156.037 54.912C156.205 55.212 156.433 55.506 156.721 55.794C157.141 56.214 157.627 56.538 158.179 56.766C158.731 56.994 159.313 57.108 159.925 57.108C160.537 57.108 161.119 56.994 161.671 56.766C162.223 56.538 162.709 56.214 163.129 55.794C163.417 55.506 163.639 55.212 163.795 54.912C163.963 54.6 164.083 54.246 164.155 53.85C164.239 53.454 164.287 52.992 164.299 52.464C164.311 51.936 164.317 51.312 164.317 50.592ZM163.345 50.592C163.345 51.276 163.333 51.864 163.309 52.356C163.297 52.836 163.255 53.256 163.183 53.616C163.123 53.964 163.027 54.27 162.895 54.534C162.763 54.786 162.583 55.026 162.355 55.254C162.031 55.578 161.659 55.824 161.239 55.992C160.819 56.16 160.381 56.244 159.925 56.244C159.469 56.244 159.031 56.16 158.611 55.992C158.191 55.824 157.819 55.578 157.495 55.254C157.267 55.026 157.087 54.786 156.955 54.534C156.823 54.27 156.721 53.964 156.649 53.616C156.589 53.256 156.547 52.836 156.523 52.356C156.511 51.864 156.505 51.276 156.505 50.592C156.505 49.908 156.511 49.326 156.523 48.846C156.547 48.354 156.589 47.934 156.649 47.586C156.721 47.226 156.823 46.92 156.955 46.668C157.087 46.404 157.267 46.158 157.495 45.93C157.819 45.606 158.191 45.36 158.611 45.192C159.031 45.024 159.469 44.94 159.925 44.94C160.381 44.94 160.819 45.024 161.239 45.192C161.659 45.36 162.031 45.606 162.355 45.93C162.583 46.158 162.763 46.404 162.895 46.668C163.027 46.92 163.123 47.226 163.183 47.586C163.255 47.934 163.297 48.354 163.309 48.846C163.333 49.326 163.345 49.908 163.345 50.592ZM181.419 44.184H180.393L177.693 55.326L174.705 44.184H173.697L170.709 55.326L168.009 44.184H166.983L170.187 57H171.177L174.201 45.84L177.225 57H178.215L181.419 44.184Z" fill="white"/>
<rect x="263" width="120" height="100" fill="#E9ECE0"/>
<path d="M309.652 71.108C309.652 70.652 309.6 70.204 309.496 69.764C309.4 69.316 309.204 68.944 308.908 68.648C308.756 68.496 308.556 68.376 308.308 68.288C308.068 68.192 307.796 68.144 307.492 68.144C307.164 68.144 306.86 68.196 306.58 68.3C306.3 68.404 306.032 68.624 305.776 68.96V68.216H305.164V76.76H305.776V73.256C306.032 73.592 306.3 73.812 306.58 73.916C306.86 74.02 307.164 74.072 307.492 74.072C307.796 74.072 308.068 74.028 308.308 73.94C308.556 73.844 308.756 73.72 308.908 73.568C309.204 73.272 309.4 72.904 309.496 72.464C309.6 72.016 309.652 71.564 309.652 71.108ZM309.04 71.108C309.04 71.412 309.02 71.708 308.98 71.996C308.948 72.284 308.872 72.544 308.752 72.776C308.64 73 308.476 73.184 308.26 73.328C308.044 73.464 307.76 73.532 307.408 73.532C307.056 73.532 306.772 73.464 306.556 73.328C306.34 73.184 306.172 73 306.052 72.776C305.94 72.544 305.864 72.284 305.824 71.996C305.792 71.708 305.776 71.412 305.776 71.108C305.776 70.812 305.792 70.52 305.824 70.232C305.864 69.936 305.94 69.676 306.052 69.452C306.172 69.22 306.34 69.036 306.556 68.9C306.772 68.756 307.056 68.684 307.408 68.684C307.76 68.684 308.044 68.756 308.26 68.9C308.476 69.036 308.64 69.22 308.752 69.452C308.872 69.676 308.948 69.936 308.98 70.232C309.02 70.52 309.04 70.812 309.04 71.108ZM315.94 71.24V70.964C315.94 70.076 315.736 69.384 315.328 68.888C314.92 68.392 314.352 68.144 313.624 68.144C312.896 68.144 312.328 68.404 311.92 68.924C311.512 69.444 311.308 70.172 311.308 71.108C311.308 72.076 311.516 72.812 311.932 73.316C312.356 73.82 312.968 74.072 313.768 74.072C314.008 74.072 314.224 74.052 314.416 74.012C314.608 73.98 314.784 73.928 314.944 73.856C315.112 73.776 315.268 73.68 315.412 73.568C315.564 73.456 315.712 73.328 315.856 73.184L315.4 72.824C315.152 73.072 314.908 73.252 314.668 73.364C314.436 73.468 314.148 73.52 313.804 73.52C313.188 73.52 312.72 73.324 312.4 72.932C312.08 72.54 311.92 71.976 311.92 71.24H315.94ZM315.328 70.748H311.92C311.928 70.612 311.936 70.496 311.944 70.4C311.952 70.296 311.964 70.208 311.98 70.136C311.996 70.056 312.012 69.98 312.028 69.908C312.052 69.828 312.084 69.744 312.124 69.656C312.252 69.352 312.448 69.116 312.712 68.948C312.984 68.772 313.288 68.684 313.624 68.684C313.96 68.684 314.26 68.772 314.524 68.948C314.796 69.116 314.996 69.352 315.124 69.656C315.156 69.744 315.184 69.828 315.208 69.908C315.232 69.98 315.252 70.056 315.268 70.136C315.284 70.208 315.296 70.296 315.304 70.4C315.312 70.496 315.32 70.612 315.328 70.748ZM321.622 68.696C321.414 68.488 321.198 68.344 320.974 68.264C320.758 68.184 320.51 68.144 320.23 68.144C319.886 68.144 319.558 68.216 319.246 68.36C318.942 68.504 318.706 68.712 318.538 68.984V68.216H317.926V74H318.538V70.436C318.538 70.204 318.57 69.984 318.634 69.776C318.706 69.56 318.806 69.372 318.934 69.212C319.07 69.052 319.234 68.924 319.426 68.828C319.618 68.732 319.838 68.684 320.086 68.684C320.326 68.684 320.522 68.716 320.674 68.78C320.834 68.844 321.002 68.964 321.178 69.14L321.622 68.696ZM330.346 74V70.304C330.346 69.616 330.146 69.08 329.746 68.696C329.362 68.328 328.85 68.144 328.21 68.144C327.506 68.144 326.938 68.396 326.506 68.9V68.216H325.894V74H326.506V70.412C326.506 69.86 326.646 69.436 326.926 69.14C327.214 68.836 327.618 68.684 328.138 68.684C328.658 68.684 329.054 68.832 329.326 69.128C329.598 69.424 329.734 69.852 329.734 70.412V74H330.346ZM333.282 66.212V65.456H332.526V66.212H333.282ZM333.21 74V68.216H332.598V74H333.21ZM339.691 74.324V68.216H339.079V68.96C338.823 68.624 338.555 68.404 338.275 68.3C337.995 68.196 337.691 68.144 337.363 68.144C337.059 68.144 336.783 68.192 336.535 68.288C336.295 68.376 336.099 68.496 335.947 68.648C335.651 68.944 335.451 69.316 335.347 69.764C335.251 70.204 335.203 70.652 335.203 71.108C335.203 71.564 335.251 72.016 335.347 72.464C335.451 72.904 335.651 73.272 335.947 73.568C336.099 73.72 336.295 73.844 336.535 73.94C336.783 74.028 337.059 74.072 337.363 74.072C337.691 74.072 337.995 74.02 338.275 73.916C338.555 73.812 338.823 73.592 339.079 73.256V74.288C339.079 74.576 339.043 74.84 338.971 75.08C338.907 75.328 338.803 75.54 338.659 75.716C338.515 75.9 338.331 76.04 338.107 76.136C337.891 76.24 337.631 76.292 337.327 76.292C337.143 76.292 336.983 76.276 336.847 76.244C336.711 76.22 336.587 76.18 336.475 76.124C336.363 76.076 336.255 76.012 336.151 75.932C336.047 75.852 335.939 75.76 335.827 75.656L335.419 76.064C335.571 76.2 335.715 76.316 335.851 76.412C335.987 76.508 336.127 76.588 336.271 76.652C336.423 76.716 336.583 76.76 336.751 76.784C336.919 76.816 337.111 76.832 337.327 76.832C337.703 76.832 338.035 76.768 338.323 76.64C338.619 76.52 338.867 76.348 339.067 76.124C339.275 75.9 339.431 75.632 339.535 75.32C339.639 75.016 339.691 74.684 339.691 74.324ZM339.079 71.108C339.079 71.412 339.059 71.708 339.019 71.996C338.987 72.284 338.911 72.544 338.791 72.776C338.679 73 338.515 73.184 338.299 73.328C338.083 73.464 337.799 73.532 337.447 73.532C337.095 73.532 336.811 73.464 336.595 73.328C336.379 73.184 336.211 73 336.091 72.776C335.979 72.544 335.903 72.284 335.863 71.996C335.831 71.708 335.815 71.412 335.815 71.108C335.815 70.812 335.831 70.52 335.863 70.232C335.903 69.936 335.979 69.676 336.091 69.452C336.211 69.22 336.379 69.036 336.595 68.9C336.811 68.756 337.095 68.684 337.447 68.684C337.799 68.684 338.083 68.756 338.299 68.9C338.515 69.036 338.679 69.22 338.791 69.452C338.911 69.676 338.987 69.936 339.019 70.232C339.059 70.52 339.079 70.812 339.079 71.108ZM346.471 74V70.304C346.471 69.632 346.279 69.104 345.895 68.72C345.519 68.336 344.999 68.144 344.335 68.144C343.631 68.144 343.063 68.396 342.631 68.9V65.456H342.019V74H342.631V70.412C342.631 69.86 342.771 69.436 343.051 69.14C343.339 68.836 343.743 68.684 344.263 68.684C344.783 68.684 345.179 68.832 345.451 69.128C345.723 69.424 345.859 69.852 345.859 70.412V74H346.471ZM350.787 74V73.46H350.367C350.063 73.46 349.839 73.376 349.695 73.208C349.551 73.04 349.479 72.804 349.479 72.5V68.672H350.787V68.216H349.479V66.368H348.867V68.216H348.075V68.672H348.867V72.488C348.867 72.928 348.983 73.292 349.215 73.58C349.455 73.86 349.803 74 350.259 74H350.787Z" fill="#333333"/>
<path d="M295.264 30.672V30.216H293.956V28.956C293.956 28.652 294.028 28.416 294.172 28.248C294.316 28.08 294.54 27.996 294.844 27.996H295.264V27.456H294.736C294.28 27.456 293.932 27.6 293.692 27.888C293.46 28.168 293.344 28.528 293.344 28.968V30.216H292.552V30.672H293.344V36H293.956V30.672H295.264ZM300.505 30.696C300.297 30.488 300.081 30.344 299.857 30.264C299.641 30.184 299.393 30.144 299.113 30.144C298.769 30.144 298.441 30.216 298.129 30.36C297.825 30.504 297.589 30.712 297.421 30.984V30.216H296.809V36H297.421V32.436C297.421 32.204 297.453 31.984 297.517 31.776C297.589 31.56 297.689 31.372 297.817 31.212C297.953 31.052 298.117 30.924 298.309 30.828C298.501 30.732 298.721 30.684 298.969 30.684C299.209 30.684 299.405 30.716 299.557 30.78C299.717 30.844 299.885 30.964 300.061 31.14L300.505 30.696ZM305.617 33.108C305.617 32.692 305.573 32.276 305.485 31.86C305.397 31.444 305.201 31.084 304.897 30.78C304.689 30.572 304.449 30.416 304.177 30.312C303.913 30.2 303.617 30.144 303.289 30.144C302.641 30.144 302.105 30.356 301.681 30.78C301.377 31.084 301.181 31.444 301.093 31.86C301.005 32.276 300.961 32.692 300.961 33.108C300.961 33.524 301.005 33.94 301.093 34.356C301.181 34.772 301.377 35.132 301.681 35.436C302.105 35.86 302.641 36.072 303.289 36.072C303.617 36.072 303.913 36.02 304.177 35.916C304.449 35.804 304.689 35.644 304.897 35.436C305.201 35.132 305.397 34.772 305.485 34.356C305.573 33.94 305.617 33.524 305.617 33.108ZM305.005 33.108C305.005 33.276 305.001 33.448 304.993 33.624C304.985 33.8 304.961 33.976 304.921 34.152C304.889 34.32 304.837 34.48 304.765 34.632C304.701 34.784 304.609 34.92 304.489 35.04C304.329 35.2 304.145 35.324 303.937 35.412C303.737 35.492 303.521 35.532 303.289 35.532C302.817 35.532 302.417 35.368 302.089 35.04C301.969 34.92 301.873 34.784 301.801 34.632C301.737 34.48 301.685 34.32 301.645 34.152C301.613 33.976 301.593 33.8 301.585 33.624C301.577 33.448 301.573 33.276 301.573 33.108C301.573 32.94 301.577 32.768 301.585 32.592C301.593 32.416 301.613 32.244 301.645 32.076C301.685 31.9 301.737 31.736 301.801 31.584C301.873 31.432 301.969 31.296 302.089 31.176C302.417 30.848 302.817 30.684 303.289 30.684C303.521 30.684 303.737 30.728 303.937 30.816C304.145 30.896 304.329 31.016 304.489 31.176C304.609 31.296 304.701 31.432 304.765 31.584C304.837 31.736 304.889 31.9 304.921 32.076C304.961 32.244 304.985 32.416 304.993 32.592C305.001 32.768 305.005 32.94 305.005 33.108ZM315.893 36V32.304C315.893 31.616 315.693 31.08 315.293 30.696C315.109 30.52 314.889 30.384 314.633 30.288C314.377 30.192 314.089 30.144 313.769 30.144C313.337 30.144 312.953 30.236 312.617 30.42C312.289 30.596 312.017 30.856 311.801 31.2C311.625 30.856 311.377 30.596 311.057 30.42C310.745 30.236 310.373 30.144 309.941 30.144C309.229 30.144 308.657 30.396 308.225 30.9V30.216H307.613V36H308.225V32.412C308.225 31.86 308.365 31.436 308.645 31.14C308.933 30.836 309.337 30.684 309.857 30.684C310.377 30.684 310.773 30.832 311.045 31.128C311.317 31.424 311.453 31.852 311.453 32.412V36H312.065V32.304C312.065 31.808 312.209 31.416 312.497 31.128C312.793 30.832 313.193 30.684 313.697 30.684C314.217 30.684 314.613 30.832 314.885 31.128C315.157 31.424 315.293 31.852 315.293 32.412V36H315.893Z" fill="#333333"/>
<path d="M299.368 43.3191C300.035 43.3191 300.661 43.3924 301.248 43.5391C301.835 43.6857 302.401 43.9191 302.948 44.2391L302.208 45.6791C301.835 45.4791 301.395 45.2924 300.888 45.1191C300.395 44.9457 299.888 44.8591 299.368 44.8591C297.341 44.8591 296.081 46.1324 295.588 48.6791H300.468V49.9791H295.448C295.435 50.1124 295.428 50.2391 295.428 50.3591C295.428 50.4791 295.428 50.6057 295.428 50.7391C295.428 50.8591 295.428 50.9924 295.428 51.1391C295.428 51.2724 295.435 51.4124 295.448 51.5591H299.868V52.8591H295.608C295.835 53.9924 296.268 54.8724 296.908 55.4991C297.561 56.1124 298.435 56.4191 299.528 56.4191C300.048 56.4191 300.568 56.3591 301.088 56.2391C301.621 56.1057 302.095 55.9524 302.508 55.7791V57.3391C302.095 57.5124 301.635 57.6591 301.128 57.7791C300.635 57.9124 300.068 57.9791 299.428 57.9791C297.815 57.9791 296.548 57.5191 295.628 56.5991C294.721 55.6791 294.121 54.4324 293.828 52.8591H292.228V51.5591H293.668C293.655 51.3991 293.648 51.2657 293.648 51.1591C293.648 51.0524 293.648 50.9124 293.648 50.7391C293.648 50.5924 293.648 50.4524 293.648 50.3191C293.661 50.1724 293.668 50.0591 293.668 49.9791H292.228V48.6791H293.808C294.061 47.0391 294.655 45.7391 295.588 44.7791C296.521 43.8057 297.781 43.3191 299.368 43.3191ZM312.773 53.7791C312.773 52.8991 312.593 52.1857 312.233 51.6391C311.873 51.0924 311.387 50.6857 310.773 50.4191C311.333 50.1524 311.767 49.7724 312.073 49.2791C312.393 48.7724 312.553 48.1391 312.553 47.3791C312.553 46.7924 312.447 46.2591 312.233 45.7791C312.033 45.2857 311.747 44.8657 311.373 44.5191C311.013 44.1591 310.58 43.8857 310.073 43.6991C309.567 43.4991 309.013 43.3991 308.413 43.3991C307.84 43.3991 307.307 43.4924 306.813 43.6791C306.32 43.8524 305.887 44.1057 305.513 44.4391C305.14 44.7724 304.84 45.1791 304.613 45.6591C304.387 46.1391 304.26 46.6791 304.233 47.2791H306.273C306.327 46.6391 306.54 46.1391 306.913 45.7791C307.287 45.4191 307.787 45.2391 308.413 45.2391C309 45.2391 309.493 45.4257 309.893 45.7991C310.307 46.1724 310.513 46.7191 310.513 47.4391C310.513 48.0924 310.34 48.6191 309.993 49.0191C309.647 49.4057 309.1 49.5991 308.353 49.5991H308.013V51.3791H308.353C309.153 51.3791 309.747 51.5924 310.133 52.0191C310.533 52.4324 310.733 52.9991 310.733 53.7191C310.733 54.4791 310.513 55.0657 310.073 55.4791C309.633 55.8791 309.08 56.0791 308.413 56.0791C308.12 56.0791 307.833 56.0391 307.553 55.9591C307.287 55.8791 307.047 55.7524 306.833 55.5791C306.633 55.3924 306.46 55.1657 306.313 54.8991C306.18 54.6324 306.107 54.3057 306.093 53.9191H304.053C304.067 54.6124 304.193 55.2124 304.433 55.7191C304.687 56.2257 305.013 56.6457 305.413 56.9791C305.813 57.2991 306.267 57.5391 306.773 57.6991C307.293 57.8457 307.84 57.9191 308.413 57.9191C309.013 57.9191 309.573 57.8324 310.093 57.6591C310.627 57.4857 311.087 57.2257 311.473 56.8791C311.873 56.5324 312.187 56.0991 312.413 55.5791C312.653 55.0591 312.773 54.4591 312.773 53.7791ZM317.877 57.7791V55.3391H315.437V57.7791H317.877ZM328.984 57.7791V55.9591H323.184L327.644 50.4991C328.084 49.9657 328.417 49.4791 328.644 49.0391C328.871 48.5857 328.984 48.0457 328.984 47.4191C328.984 46.8057 328.884 46.2524 328.684 45.7591C328.484 45.2657 328.204 44.8457 327.844 44.4991C327.484 44.1524 327.051 43.8857 326.544 43.6991C326.037 43.5124 325.477 43.4191 324.864 43.4191C324.264 43.4191 323.711 43.5191 323.204 43.7191C322.697 43.9057 322.257 44.1724 321.884 44.5191C321.524 44.8657 321.237 45.2924 321.024 45.7991C320.824 46.2924 320.724 46.8391 320.724 47.4391H322.764C322.764 47.0391 322.824 46.6991 322.944 46.4191C323.064 46.1391 323.217 45.9124 323.404 45.7391C323.604 45.5657 323.831 45.4391 324.084 45.3591C324.337 45.2791 324.597 45.2391 324.864 45.2391C325.531 45.2391 326.044 45.4391 326.404 45.8391C326.764 46.2391 326.944 46.7591 326.944 47.3991C326.944 47.7591 326.884 48.0857 326.764 48.3791C326.644 48.6591 326.451 48.9657 326.184 49.2991L320.704 55.9591V57.7791H328.984ZM339.548 53.8191V47.4991C339.548 46.8591 339.435 46.2924 339.208 45.7991C338.995 45.2924 338.701 44.8657 338.328 44.5191C337.955 44.1591 337.515 43.8857 337.008 43.6991C336.515 43.5124 335.988 43.4191 335.428 43.4191C334.868 43.4191 334.335 43.5124 333.828 43.6991C333.335 43.8857 332.901 44.1591 332.528 44.5191C332.155 44.8657 331.861 45.2924 331.648 45.7991C331.435 46.2924 331.328 46.8591 331.328 47.4991V53.8191C331.328 54.4591 331.435 55.0324 331.648 55.5391C331.861 56.0324 332.155 56.4591 332.528 56.8191C332.901 57.1657 333.335 57.4324 333.828 57.6191C334.335 57.8057 334.868 57.8991 335.428 57.8991C335.988 57.8991 336.515 57.8057 337.008 57.6191C337.515 57.4324 337.955 57.1657 338.328 56.8191C338.701 56.4591 338.995 56.0324 339.208 55.5391C339.435 55.0324 339.548 54.4591 339.548 53.8191ZM337.508 53.7591C337.508 54.4524 337.321 55.0124 336.948 55.4391C336.588 55.8657 336.081 56.0791 335.428 56.0791C334.775 56.0791 334.268 55.8657 333.908 55.4391C333.548 55.0124 333.368 54.4524 333.368 53.7591V47.5591C333.368 46.8657 333.548 46.3057 333.908 45.8791C334.268 45.4524 334.775 45.2391 335.428 45.2391C336.081 45.2391 336.588 45.4524 336.948 45.8791C337.321 46.3057 337.508 46.8657 337.508 47.5591V53.7591ZM350.212 53.8191V47.4991C350.212 46.8591 350.099 46.2924 349.872 45.7991C349.659 45.2924 349.365 44.8657 348.992 44.5191C348.619 44.1591 348.179 43.8857 347.672 43.6991C347.179 43.5124 346.652 43.4191 346.092 43.4191C345.532 43.4191 344.999 43.5124 344.492 43.6991C343.999 43.8857 343.565 44.1591 343.192 44.5191C342.819 44.8657 342.525 45.2924 342.312 45.7991C342.099 46.2924 341.992 46.8591 341.992 47.4991V53.8191C341.992 54.4591 342.099 55.0324 342.312 55.5391C342.525 56.0324 342.819 56.4591 343.192 56.8191C343.565 57.1657 343.999 57.4324 344.492 57.6191C344.999 57.8057 345.532 57.8991 346.092 57.8991C346.652 57.8991 347.179 57.8057 347.672 57.6191C348.179 57.4324 348.619 57.1657 348.992 56.8191C349.365 56.4591 349.659 56.0324 349.872 55.5391C350.099 55.0324 350.212 54.4591 350.212 53.8191ZM348.172 53.7591C348.172 54.4524 347.985 55.0124 347.612 55.4391C347.252 55.8657 346.745 56.0791 346.092 56.0791C345.439 56.0791 344.932 55.8657 344.572 55.4391C344.212 55.0124 344.032 54.4524 344.032 53.7591V47.5591C344.032 46.8657 344.212 46.3057 344.572 45.8791C344.932 45.4524 345.439 45.2391 346.092 45.2391C346.745 45.2391 347.252 45.4524 347.612 45.8791C347.985 46.3057 348.172 46.8657 348.172 47.5591V53.7591Z" fill="#333333"/>
</svg>
